OpenSim_Sub07_CSStiffKnee_RCS.mot
version=1
nRows=68
nColumns=11
inDegrees=no
endheader
time	Top_Thigh	Med_Thigh	Bot_Thigh	Top_Shank	2nd_Top_Shank	2nd_Bot_Shank	Bot_Shank	BNOx	BNOy	BNOZ
0	2043.16394256	1892.28680560	1375.15353855	1300.84607577	1364.12755471	1248.81818294	1231.24084441	12.17385827	-76.24965383	174.64239518
0.01000000	2043.49691909	1892.44949917	1375.79993883	1300.54219598	1363.73393981	1249.04411968	1231.07523932	12.16836825	-76.24950482	174.63832635
0.02000000	2043.72879601	1892.53833227	1376.15243643	1300.25594608	1363.39178023	1249.16824002	1231.02809538	12.16291290	-76.24934214	174.63673286
0.03000000	2043.86786284	1892.55909840	1376.23645726	1299.99289146	1363.09917499	1249.20101049	1231.08762952	12.15774515	-76.24917075	174.63680846
0.04000000	2043.92240906	1892.51759105	1376.07742729	1299.75859752	1362.85422309	1249.15289765	1231.24205867	12.15311793	-76.24899563	174.63774692
0.05000000	2043.90072417	1892.41960370	1375.70077243	1299.55862962	1362.65502357	1249.03436804	1231.47959979	12.14928419	-76.24882176	174.63874200
0.06000000	2043.81109766	1892.27092984	1375.13191863	1299.39855316	1362.49967543	1248.85588819	1231.78846979	12.14649685	-76.24865412	174.63898745
0.07000000	2043.66181903	1892.07736296	1374.39629182	1299.28393351	1362.38627769	1248.62792465	1232.15688563	12.14500885	-76.24849769	174.63767703
0.08000000	2043.46117777	1891.84469655	1373.51931794	1299.22033608	1362.31292936	1248.36094396	1232.57306423	12.14507312	-76.24835744	174.63400450
0.09000000	2043.21746339	1891.57872409	1372.52642292	1299.21332623	1362.27772947	1248.06541266	1233.02522254	12.14694261	-76.24823836	174.62716363
0.10000000	2042.93896536	1891.28523907	1371.44303271	1299.26846935	1362.27877703	1247.75179730	1233.50157749	12.15087025	-76.24814541	174.61634817
0.11000000	2042.63397319	1890.97003498	1370.29457323	1299.39133084	1362.31417106	1247.43056442	1233.99034601	12.15710896	-76.24808358	174.60075187
0.12000000	2042.31077637	1890.63890531	1369.10647043	1299.58747606	1362.38201057	1247.11218055	1234.47974506	12.16591170	-76.24805785	174.57956851
0.13000000	2041.97766440	1890.29764355	1367.90415024	1299.86247042	1362.48039458	1246.80711224	1234.95799156	12.17753138	-76.24807320	174.55199183
0.14000000	2041.64292678	1889.95204318	1366.71303860	1300.22187928	1362.60742210	1246.52582603	1235.41330245	12.19222095	-76.24813460	174.51721560
0.15000000	2041.31485298	1889.60789769	1365.55856144	1300.67126804	1362.76119215	1246.27878847	1235.83389467	12.21023335	-76.24824703	174.47443357
0.16000000	2041.00173252	1889.27100057	1364.46614470	1301.21620209	1362.93980376	1246.07646610	1236.20798515	12.23182150	-76.24841546	174.42283952
0.17000000	2040.71185489	1888.94714531	1363.46121432	1301.86224679	1363.14135592	1245.92932545	1236.52379084	12.25723834	-76.24864488	174.36162718
0.18000000	2040.45350957	1888.64212539	1362.56919623	1302.61496755	1363.36394767	1245.84783308	1236.76952867	12.28673681	-76.24894027	174.28999033
0.19000000	2040.23498607	1888.36173431	1361.81551637	1303.47992974	1363.60567802	1245.84245551	1236.93341557	12.32056985	-76.24930660	174.20712273
0.20000000	2040.06457389	1888.11176555	1361.22560068	1304.46269875	1363.86464597	1245.92365930	1237.00366849	12.35899038	-76.24974885	174.11221813
0.21000000	2039.95031729	1887.89795052	1360.82373478	1305.56768451	1364.13846683	1246.10105118	1236.96940486	12.40221857	-76.25027051	174.00452067
0.22000000	2039.89462078	1887.72459293	1360.60797729	1306.77272131	1364.41363004	1246.36446224	1236.84045354	12.44972075	-76.25084080	173.88443345
0.23000000	2039.89424903	1887.59456876	1360.55015979	1308.02906786	1364.66549923	1246.68394796	1236.64735483	12.50020942	-76.25139468	173.75351845
0.24000000	2039.94572152	1887.51069194	1360.62097357	1309.28682739	1364.86895429	1247.02870399	1236.42154951	12.55236430	-76.25186561	173.61338808
0.25000000	2040.04555773	1887.47577637	1360.79110990	1310.49610313	1364.99887513	1247.36792599	1236.19447838	12.60486512	-76.25218707	173.46565472
0.26000000	2040.19027712	1887.49263598	1361.03126007	1311.60699831	1365.03014163	1247.67080963	1235.99758223	12.65639162	-76.25229253	173.31193078
0.27000000	2040.37639917	1887.56408467	1361.31211536	1312.56961617	1364.93763370	1247.90655055	1235.86230183	12.70562350	-76.25211544	173.15382864
0.28000000	2040.60044336	1887.69293637	1361.60436704	1313.33405994	1364.69623122	1248.04434442	1235.82007799	12.75124050	-76.25158928	172.99296069
0.29000000	2040.85892916	1887.88200500	1361.87870641	1313.85043285	1364.28081409	1248.05338689	1235.90235150	12.79192235	-76.25064752	172.83093933
0.30000000	2041.14762722	1888.13296999	1362.11052331	1314.06949525	1363.66834934	1247.90434255	1236.13864827	12.82649399	-76.24923943	172.66935608
0.31000000	2041.44508523	1888.42141804	1362.38327468	1313.95712089	1362.88380810	1247.60166104	1236.51445232	12.85712073	-76.24767786	172.50932222
0.32000000	2041.71262791	1888.69684312	1362.88848454	1313.49429697	1362.00016557	1247.18357712	1236.97120576	12.88930818	-76.24663919	172.35146882
0.33000000	2041.91083116	1888.90760470	1363.82237549	1312.66266778	1361.09248410	1246.68979445	1237.44843582	12.92870718	-76.24681565	172.19640608
0.34000000	2042.00027088	1889.00206227	1365.38117012	1311.44387762	1360.23582603	1246.16001668	1237.88566975	12.98096860	-76.24889945	172.04474418
0.35000000	2041.94515043	1888.93297019	1367.74501682	1309.82440689	1359.50055193	1245.63169087	1238.22651674	13.05141445	-76.25350722	171.89673725
0.36000000	2041.74712176	1888.69845396	1370.92812011	1307.84066218	1358.90848277	1245.11896777	1238.45672671	13.14197200	-76.26047550	171.74896347
0.37000000	2041.42992946	1888.32340555	1374.84678653	1305.55850384	1358.45280383	1244.62225454	1238.58691030	13.25256583	-76.26918060	171.59583246
0.38000000	2041.01760367	1887.83306294	1379.41605730	1303.04417289	1358.12633027	1244.14178072	1238.62799949	13.38309460	-76.27899288	171.43172579
0.39000000	2040.53417452	1887.25266407	1384.55097365	1300.36391037	1357.92187722	1243.67777584	1238.59092625	13.53345699	-76.28928270	171.25102502
0.40000000	2040.00367214	1886.60744689	1390.16657680	1297.58395730	1357.83225986	1243.23046944	1238.48662254	13.70355168	-76.29942042	171.04811174
0.41000000	2039.45012667	1885.92264936	1396.17790797	1294.77055472	1357.85029332	1242.80009105	1238.32602035	13.89327736	-76.30877639	170.81736750
0.42000000	2038.89756825	1885.22350943	1402.50000839	1291.98994365	1357.96879277	1242.38687020	1238.12005164	14.10253268	-76.31672098	170.55317390
0.43000000	2038.37002701	1884.53526505	1409.04791928	1289.30836514	1358.18057335	1241.99103643	1237.87964839	14.33121634	-76.32262456	170.24991249
0.44000000	2037.89153309	1883.88315418	1415.73668186	1286.79206020	1358.47845022	1241.61281928	1237.61574257	14.57922701	-76.32585747	169.90196485
0.45000000	2037.48611663	1883.29241477	1422.48133736	1284.50726988	1358.85523853	1241.25244827	1237.33926614	14.84646337	-76.32579007	169.50371256
0.46000000	2037.17780775	1882.78828477	1429.19692700	1282.52023519	1359.30375344	1240.91015295	1237.06115109	15.13282409	-76.32179274	169.04953718
0.47000000	2036.99063660	1882.39600214	1435.79849199	1280.89719718	1359.81681009	1240.58616284	1236.79232939	15.43820786	-76.31323583	168.53382029
0.48000000	2036.94863331	1882.14080482	1442.20107358	1279.70439687	1360.38722364	1240.28070748	1236.54373300	15.76251334	-76.29948969	167.95094346
0.49000000	2037.07582802	1882.04793077	1448.31971297	1279.00807529	1361.00780925	1239.99401640	1236.32629389	16.10563922	-76.27992469	167.29528826
0.50000000	2037.39625085	1882.14261795	1454.06945139	1278.87447347	1361.67138207	1239.72631915	1236.15094405	16.46748418	-76.25391119	166.56123627
0.51000000	2037.93393196	1882.45010430	1459.36533007	1279.36983245	1362.37075724	1239.47784524	1236.02861544	16.84794688	-76.22081954	165.74316906
0.52000000	2038.71290147	1882.99562778	1464.12239022	1280.56039326	1363.09874993	1239.24882422	1235.97024004	17.24692602	-76.18002012	164.83546820
0.53000000	2039.75718951	1883.80442634	1468.25567308	1282.51239691	1363.84817528	1239.03948563	1235.98674981	17.66432026	-76.13088327	163.83251526
0.54000000	2041.06879592	1884.87413237	1471.63658997	1285.24188419	1364.60603298	1238.84049139	1236.07636880	18.09997990	-76.07220509	162.73025572
0.55000000	2042.48690272	1885.99835593	1473.81410008	1288.39388441	1365.31634283	1238.57179285	1236.14340144	18.55339772	-75.99853744	161.53619329
0.56000000	2043.77771651	1886.87926365	1474.19263859	1291.44713853	1365.90386087	1238.12164870	1236.05005714	19.02390622	-75.90252991	160.26301213
0.57000000	2044.73091667	1887.25377016	1472.27338862	1293.92930152	1366.30193801	1237.39054009	1235.67319569	19.51104589	-75.77757272	158.92305274
0.58000000	2045.31220493	1887.11878734	1468.27759949	1295.73533080	1366.50811787	1236.37038492	1234.99941989	20.01589973	-75.62259593	157.52593544
0.59000000	2045.56617675	1886.58775864	1462.74925629	1296.92480981	1366.54871546	1235.09408329	1234.06451966	20.54024214	-75.43901263	156.08006132
0.60000000	2045.53779973	1885.77467717	1456.23386643	1297.55809855	1366.45018151	1233.59472864	1232.90451694	21.08585075	-75.22824759	154.59382573
0.61000000	2045.27204149	1884.79353604	1449.27693737	1297.69555700	1366.23896674	1231.90541437	1231.55543368	21.65450321	-74.99172560	153.07562402
0.62000000	2044.81386963	1883.75832837	1442.42397652	1297.39754515	1365.94152187	1230.05923391	1230.05329182	22.24797717	-74.73087144	151.53385153
0.63000000	2044.20825176	1882.78304727	1436.22049132	1296.72442298	1365.58429763	1228.08928067	1228.43411330	22.86805027	-74.44710990	149.97690361
0.64000000	2043.50015549	1881.98168585	1431.21198919	1295.73655049	1365.19374474	1226.02864808	1226.73392006	23.51650016	-74.14186576	148.41317561
0.65000000	2042.73454842	1881.46823723	1427.94397757	1294.49428767	1364.79631392	1223.91042956	1224.98873405	24.19510448	-73.81656380	146.85106288
0.66000000	2041.95639817	1881.35669452	1426.96196389	1293.05799449	1364.41845589	1221.76771852	1223.23457720	24.90564088	-73.47262881	145.29896075
0.67000000	2041.21067233	1881.76105083	1428.81145558	1291.48803096	1364.08662138	1219.63360840	1221.50747147	25.64988701	-73.11148557	143.76526458
